Coordinates
version=1
nRows=18
nColumns=63
inDegrees=yes

Units are S.I. units (second, meters, Newtons, ...)
If the header above contains a line with 'inDegrees', this indicates whether rotational values are in degrees (yes) or radians (no).

endheader
time	pelvis_tilt	pelvis_list	pelvis_rotation	pelvis_tx	pelvis_ty	pelvis_tz	hip_flexion_r	hip_adduction_r	hip_rotation_r	knee_angle_r	knee_angle_r_beta	ankle_angle_r	subtalar_angle_r	mtp_angle_r	hip_flexion_l	hip_adduction_l	hip_rotation_l	knee_angle_l	knee_angle_l_beta	ankle_angle_l	subtalar_angle_l	mtp_angle_l	L5_S1_Flex_Ext	L5_S1_Lat_Bending	L5_S1_axial_rotation	L4_L5_Flex_Ext	L4_L5_Lat_Bending	L4_L5_axial_rotation	L3_L4_Flex_Ext	L3_L4_Lat_Bending	L3_L4_axial_rotation	L2_L3_Flex_Ext	L2_L3_Lat_Bending	L2_L3_axial_rotation	L1_L2_Flex_Ext	L1_L2_Lat_Bending	L1_L2_axial_rotation	L1_T12_Flex_Ext	L1_T12_Lat_Bending	L1_T12_axial_rotation	Abs_r3	Abs_r2	Abs_r1	Abs_t1	Abs_t2	neck_flexion	neck_bending	neck_rotation	arm_flex_r	arm_add_r	arm_rot_r	elbow_flex_r	pro_sup_r	wrist_flex_r	wrist_dev_r	arm_flex_l	arm_add_l	arm_rot_l	elbow_flex_l	pro_sup_l	wrist_flex_l	wrist_dev_l
1.000000	-5.626767	3.828876	97.419398	0.171561	0.762357	0.737408	-6.415420	-7.188144	-1.903257	7.747986	0.135228	17.833120	-1.594339	0.000000	-7.922542	4.555131	-2.763332	2.185374	0.038142	10.995383	15.438616	0.000000	0.199380	0.698957	0.401027	0.370269	0.929613	0.426091	0.327562	1.699444	0.426091	0.227872	1.699444	0.350899	0.185144	1.425313	0.325835	0.113926	1.082684	0.300770	1.424153	7.906740	2.230393	0.000000	0.000000	27.231487	16.674108	27.310746	169.532124	-4.619741	92.234098	31.849535	89.026031	-20.839164	-6.253268	160.341051	-15.330051	76.769441	38.119812	85.700241	-4.786822	-7.055227
1.017241	-5.813904	3.554482	96.732526	0.172322	0.765876	0.737542	-5.812903	-7.522897	-1.007374	7.873449	0.137418	16.700203	-2.032225	0.000000	-7.312549	4.817974	-4.027095	2.577069	0.044978	10.071570	16.202044	0.000000	0.187185	0.706147	0.550112	0.347622	0.939176	0.584493	0.307527	1.716926	0.584493	0.213934	1.716926	0.481348	0.173820	1.439975	0.446966	0.106958	1.093822	0.412584	1.337047	7.988078	3.059555	0.000000	0.000000	26.880543	17.436893	29.775545	169.958278	-4.164018	90.350760	29.613400	88.452936	-19.723588	-4.848458	161.331888	-15.287746	76.151380	35.820940	83.819317	-3.589694	-6.629155
1.034483	-5.993184	3.276968	96.092238	0.173021	0.769204	0.737797	-5.189671	-7.848418	-0.192264	8.016651	0.139917	15.655482	-2.401162	0.000000	-6.674400	5.052842	-5.193621	2.995658	0.052284	9.125708	16.866547	0.000000	0.174771	0.705626	0.686208	0.324567	0.938482	0.729096	0.287131	1.715659	0.729096	0.199746	1.715659	0.600432	0.162292	1.438912	0.557544	0.099864	1.093015	0.514656	1.248372	7.982182	3.816483	0.000000	0.000000	26.564772	18.469404	31.823371	170.261312	-4.293578	85.602788	27.846073	90.745266	-18.462647	-2.980930	162.573975	-15.227013	76.112854	33.624716	82.382476	-3.179406	-6.313810
1.051724	-6.175107	3.009178	95.516361	0.173631	0.772244	0.738127	-4.579372	-8.171732	0.499359	8.167235	0.142545	14.721790	-2.683211	0.000000	-6.030937	5.267415	-6.231753	3.440982	0.060056	8.176722	17.426576	0.000000	0.164568	0.696490	0.815771	0.305619	0.926331	0.866757	0.270369	1.693445	0.866757	0.188085	1.693445	0.713799	0.152818	1.420282	0.662814	0.094034	1.078862	0.611828	1.175494	7.878829	4.537073	0.000000	0.000000	26.225732	19.724233	33.396770	170.596416	-4.584501	83.331518	26.074492	90.951403	-16.823482	-1.321638	164.066703	-14.914510	78.310157	31.346575	80.047581	-3.619807	-6.352392
1.068966	-6.378253	2.758175	95.005681	0.174170	0.774934	0.738473	-4.006380	-8.510915	1.025385	8.315014	0.145124	13.931444	-2.829347	0.000000	-5.406426	5.479709	-7.128392	3.899114	0.068052	7.223950	17.893949	0.000000	0.157417	0.678009	0.944442	0.292339	0.901752	1.003469	0.258620	1.648511	1.003469	0.179912	1.648511	0.826387	0.146177	1.382596	0.767359	0.089948	1.050236	0.708331	1.124412	7.669774	5.252702	0.000000	0.000000	25.834672	21.155509	34.589055	171.045325	-5.032002	83.444416	24.427089	89.347900	-14.986944	0.077535	165.821769	-14.370302	82.749077	29.047895	77.088878	-4.797111	-6.576695
1.086207	-6.591772	2.515485	94.561724	0.174627	0.777216	0.738818	-3.467704	-8.850809	1.427266	8.455161	0.147570	13.286855	-2.891845	0.000000	-4.800226	5.681755	-7.855838	4.357969	0.076061	6.265708	18.242216	0.000000	0.154640	0.654375	1.073933	0.287183	0.870319	1.141054	0.254059	1.591048	1.141054	0.176738	1.591048	0.939692	0.143599	1.334402	0.872571	0.088361	1.013627	0.805450	1.104580	7.402425	5.972895	0.000000	0.000000	25.382567	22.727203	35.643383	171.690538	-5.555483	86.079113	22.966800	85.978151	-13.047123	1.114331	167.902994	-13.813725	87.652360	27.047534	75.195392	-6.619148	-6.684314
1.103448	-6.823725	2.294302	94.201387	0.174992	0.779050	0.739177	-2.987818	-9.197599	1.693240	8.584468	0.149827	12.805541	-2.865119	0.000000	-4.234446	5.883231	-8.372290	4.807346	0.083904	5.321876	18.458646	0.000000	0.152729	0.628027	1.198166	0.283633	0.835276	1.273052	0.250918	1.526984	1.273052	0.174554	1.526984	1.048396	0.141824	1.280672	0.973510	0.087269	0.972813	0.898625	1.090927	7.104364	6.663842	0.000000	0.000000	24.850516	24.364538	36.762716	172.573777	-6.125566	90.639787	21.688171	81.407140	-11.287473	1.715414	170.112481	-13.212735	95.105742	25.107870	72.124665	-8.373166	-6.845821
1.120690	-7.058002	2.090665	93.928182	0.175245	0.780425	0.739591	-2.560049	-9.531370	1.867955	8.710659	0.152030	12.462594	-2.828567	0.000000	-3.703297	6.072644	-8.660782	5.246727	0.091573	4.425882	18.530743	0.000000	0.150524	0.603141	1.311385	0.279539	0.802178	1.393346	0.247296	1.466478	1.393346	0.172034	1.466478	1.147461	0.139777	1.229926	1.065500	0.086010	0.934266	0.983538	1.075180	6.822857	7.293527	0.000000	0.000000	24.231734	25.971475	38.029112	173.685101	-6.712837	96.854715	20.554029	75.801272	-9.801469	1.882814	172.372287	-12.691095	104.549158	23.283784	68.045885	-9.865471	-7.035312
1.137931	-7.276748	1.905288	93.736219	0.175343	0.781349	0.740054	-2.188405	-9.831079	2.015957	8.834718	0.154195	12.218306	-2.873285	0.000000	-3.213229	6.239742	-8.742408	5.666989	0.098908	3.619822	18.483977	0.000000	0.147817	0.583079	1.408798	0.274510	0.775494	1.496848	0.242848	1.417697	1.496848	0.168940	1.417697	1.232698	0.137263	1.189014	1.144649	0.084462	0.903189	1.056599	1.055840	6.595901	7.835313	0.000000	0.000000	23.542998	27.406800	39.335628	175.048879	-7.243381	105.492218	19.551597	68.156938	-8.617493	1.590129	174.558841	-12.319296	115.779005	21.575590	62.667796	-10.914028	-7.196856
1.155172	-7.472255	1.743166	93.615210	0.175269	0.781846	0.740577	-1.877794	-10.095086	2.105481	8.964482	0.156460	12.064613	-2.939324	0.000000	-2.774077	6.384906	-8.670990	6.058316	0.105738	2.944879	18.360484	0.000000	0.144263	0.568830	1.482372	0.267910	0.756544	1.575021	0.237009	1.383054	1.575021	0.164878	1.383054	1.297076	0.133962	1.159959	1.204428	0.082432	0.881118	1.111779	1.030454	6.434723	8.244511	0.000000	0.000000	22.803609	28.569889	40.506508	176.472269	-7.866354	114.268060	18.596308	60.408320	-7.653612	1.053733	176.570087	-12.185115	127.395643	20.017350	56.909145	-11.527056	-7.297956
1.172414	-7.642435	1.608546	93.551831	0.175017	0.781939	0.741146	-1.633968	-10.321843	2.113687	9.102310	0.158865	11.990740	-2.987881	0.000000	-2.391907	6.510315	-8.463004	6.418445	0.112023	2.429251	18.159766	0.000000	0.139934	0.560805	1.528119	0.259871	0.745871	1.623627	0.229898	1.363541	1.623627	0.159931	1.363541	1.337105	0.129943	1.143594	1.241597	0.079958	0.868687	1.146090	0.999535	6.343939	8.498942	0.000000	0.000000	22.044733	29.375199	41.410135	177.854976	-8.578066	122.900361	17.630376	52.711978	-6.897088	0.358905	178.290685	-12.313702	138.939178	18.554761	50.775025	-11.838083	-7.353420
1.189655	-7.788254	1.498814	93.507936	0.174626	0.781637	0.741712	-1.451835	-10.513597	2.096384	9.247097	0.161392	11.979886	-3.042491	0.000000	-2.069226	6.624641	-8.230536	6.741232	0.117657	2.097288	17.952231	0.000000	0.135414	0.557021	1.550664	0.251477	0.740838	1.647580	0.222472	1.354342	1.647580	0.154765	1.354342	1.356831	0.125745	1.135878	1.259914	0.077376	0.862826	1.162998	0.967249	6.301137	8.624327	0.000000	0.000000	21.312983	29.879659	41.930895	179.357860	-9.425071	133.866146	16.879670	42.938862	-6.313625	-0.266856	179.661627	-12.636371	150.431168	17.143492	43.974816	-11.720393	-7.215410
1.206897	-7.927982	1.415302	93.469005	0.174161	0.780977	0.742246	-1.333800	-10.693340	2.007939	9.394907	0.163972	12.042057	-3.011934	0.000000	-1.807217	6.746558	-8.027930	7.031168	0.122717	1.952117	17.772456	0.000000	0.130940	0.555573	1.548892	0.243169	0.738912	1.645698	0.215122	1.350820	1.645698	0.149652	1.350820	1.355280	0.121591	1.132925	1.258475	0.074819	0.860583	1.161669	0.935293	6.284753	8.614472	0.000000	0.000000	20.595132	30.060110	42.078404	180.560925	-10.415823	142.710069	16.068119	35.232100	-5.787842	-0.730505	180.675274	-13.192271	160.743707	15.763422	37.627890	-11.326018	-6.786431
1.224138	-8.056989	1.342328	93.433535	0.173650	0.779993	0.742740	-1.261819	-10.858298	1.818510	9.536640	0.166446	12.188038	-2.849507	0.000000	-1.585579	6.873105	-7.865762	7.293835	0.127301	1.982365	17.600300	0.000000	0.127461	0.556444	1.528191	0.236708	0.740071	1.623702	0.209406	1.352939	1.623702	0.145675	1.352939	1.337167	0.118360	1.134702	1.241655	0.072831	0.861932	1.146143	0.910443	6.294611	8.499337	0.000000	0.000000	19.959072	29.973836	41.962236	181.464630	-11.531550	149.457309	15.156462	29.595838	-5.416842	-1.013780	181.371950	-13.967982	169.576148	14.396501	32.045542	-10.879644	-6.185084
1.241379	-8.189307	1.268859	93.382188	0.173138	0.778726	0.743182	-1.218822	-11.017760	1.621052	9.658455	0.168572	12.417193	-2.645690	0.000000	-1.390152	7.019096	-7.786088	7.535319	0.131516	2.162601	17.449062	0.000000	0.125037	0.557319	1.505146	0.232207	0.741235	1.599218	0.205424	1.355066	1.599218	0.142905	1.355066	1.317003	0.116110	1.136485	1.222931	0.071446	0.863287	1.128860	0.893130	6.304507	8.371172	0.000000	0.000000	19.427324	29.675248	41.651694	182.110151	-12.772314	154.237737	14.155280	26.059036	-5.186380	-1.090681	181.795863	-14.942473	176.658348	13.084976	27.716888	-10.646625	-5.377274
1.258621	-8.302780	1.169086	93.362341	0.172611	0.777206	0.743641	-1.180389	-11.153150	1.311254	9.748415	0.170142	12.761716	-2.288730	0.000000	-1.183558	7.156229	-7.746719	7.765064	0.135526	2.476790	17.327714	0.000000	0.124624	0.560200	1.478018	0.231440	0.745066	1.570394	0.204746	1.362071	1.570394	0.142433	1.362071	1.293266	0.115726	1.142360	1.200890	0.071210	0.867750	1.108514	0.890180	6.337097	8.220294	0.000000	0.000000	19.086370	29.188734	41.287757	182.521032	-14.112572	156.736093	13.085621	24.573084	-5.047356	-0.862888	182.059306	-16.172099	181.270276	11.839526	25.367038	-10.607257	-4.468406
1.275862	-8.408687	1.025344	93.380836	0.172094	0.775446	0.744170	-1.117714	-11.276794	0.918102	9.811802	0.171248	13.231610	-1.819435	0.000000	-0.938045	7.294929	-7.753487	7.997352	0.139580	2.905050	17.233010	0.000000	0.125268	0.562863	1.450147	0.232636	0.748608	1.540781	0.205803	1.368545	1.540781	0.143169	1.368545	1.268879	0.116324	1.147790	1.178245	0.071578	0.871875	1.087610	0.894780	6.367218	8.065284	0.000000	0.000000	18.956877	28.596755	40.974632	182.744763	-15.579700	156.642169	12.024845	25.224129	-4.925369	-0.280297	182.287157	-17.565922	184.899131	10.609520	23.566490	-10.625553	-3.617114
1.293103	-8.506458	0.833571	93.463334	0.171571	0.773464	0.744830	-1.025270	-11.386506	0.455287	9.847598	0.171873	13.824801	-1.289114	0.000000	-0.640115	7.430933	-7.783578	8.244308	0.143890	3.440947	17.161100	0.000000	0.125791	0.565571	1.419269	0.233606	0.752209	1.507973	0.206662	1.375128	1.507973	0.143766	1.375128	1.241860	0.116809	1.153312	1.153156	0.071877	0.876069	1.064452	0.898511	6.397847	7.893547	0.000000	0.000000	18.974152	27.928903	40.836725	182.814473	-17.186560	153.850926	10.996799	27.858758	-4.784089	0.643064	182.504443	-19.143841	187.364024	9.511533	22.564379	-10.562151	-2.766930
